<svg xmlns="http://www.w3.org/2000/svg" version="1.1" xmlns:xlink="http://www.w3.org/1999/xlink" xmlns:svgjs="http://svgjs.com/svgjs" width="1440" height="560" preserveAspectRatio="none" viewBox="0 0 1440 560"><g mask="url(&quot;#SvgjsMask1037&quot;)" fill="none"><rect width="1440" height="560" x="0" y="0" fill="#0e2a47"></rect><path d="M1230.56,131.835C1255.498,131.674,1283.357,130.216,1296.541,109.047C1310.252,87.032,1302.796,59.194,1289.766,36.77C1276.811,14.477,1256.335,-5.19,1230.56,-4.5C1205.627,-3.832,1189.273,18.316,1176.602,39.8C1163.643,61.773,1150.181,87.903,1163.083,109.91C1175.903,131.777,1205.213,131.999,1230.56,131.835" fill="rgba(28, 83, 142, 0.4)" class="triangle-float1"></path><path d="M331.635,245.296C355.282,244.386,378.305,233.967,389.547,213.143C400.318,193.191,395.358,169.068,383.076,150.008C371.857,132.598,352.336,123.945,331.635,123.271C309.467,122.549,286.757,128.282,274.047,146.459C259.311,167.532,252.506,195.701,265.451,217.919C278.333,240.028,306.066,246.28,331.635,245.296" fill="rgba(28, 83, 142, 0.4)" class="triangle-float3"></path><path d="M1029.233,445.081C1051.393,445.92,1072.418,434.577,1083.837,415.567C1095.602,395.981,1096.891,371.362,1085.367,351.633C1073.936,332.064,1051.896,322.163,1029.233,322.086C1006.422,322.008,983.184,331.129,972.433,351.248C962.146,370.498,970.05,393.013,981.352,411.685C992.152,429.527,1008.392,444.292,1029.233,445.081" fill="rgba(28, 83, 142, 0.4)" class="triangle-float3"></path><path d="M306.527,572.345C359.473,571.741,413.058,555.876,441.556,511.25C472.18,463.294,476.709,400.723,447.184,352.083C418.591,304.978,361.623,287.847,306.527,288.799C253.332,289.718,202.167,311.64,174.045,356.803C144.247,404.658,136.533,466.367,166.053,514.394C194.481,560.645,252.242,572.965,306.527,572.345" fill="rgba(28, 83, 142, 0.4)" class="triangle-float3"></path><path d="M628.357,348.167C687.333,346.191,719.653,284.463,744.9,231.128C765.787,187.002,769.303,138.652,748.421,94.523C723.57,42.008,686.287,-10.743,628.357,-15.154C564.276,-20.034,501.201,16.307,471.812,73.461C444.377,126.815,467.753,187.293,497.457,239.417C527.56,292.242,567.591,350.203,628.357,348.167" fill="rgba(28, 83, 142, 0.4)" class="triangle-float2"></path></g><defs><mask id="SvgjsMask1037"><rect width="1440" height="560" fill="#ffffff"></rect></mask><style>
            @keyframes float1 {
                0%{transform: translate(0, 0)}
                50%{transform: translate(-10px, 0)}
                100%{transform: translate(0, 0)}
            }

            .triangle-float1 {
                animation: float1 5s infinite;
            }

            @keyframes float2 {
                0%{transform: translate(0, 0)}
                50%{transform: translate(-5px, -5px)}
                100%{transform: translate(0, 0)}
            }

            .triangle-float2 {
                animation: float2 4s infinite;
            }

            @keyframes float3 {
                0%{transform: translate(0, 0)}
                50%{transform: translate(0, -10px)}
                100%{transform: translate(0, 0)}
            }

            .triangle-float3 {
                animation: float3 6s infinite;
            }
        </style></defs></svg>