<svg xmlns="http://www.w3.org/2000/svg" version="1.1" xmlns:xlink="http://www.w3.org/1999/xlink" xmlns:svgjs="http://svgjs.com/svgjs" width="600" height="1080" preserveAspectRatio="none" viewBox="0 0 600 1080"><g mask="url(&quot;#SvgjsMask1064&quot;)" fill="none"><rect width="600" height="1080" x="0" y="0" fill="#0e2a47"></rect><path d="M0,361.104C77.512,379.464,168.415,409.331,234.108,364.28C299.964,319.117,284.292,217.603,316.074,144.346C347.026,73.003,426.184,17.228,418.235,-60.133C410.282,-137.53,337.05,-190.688,276.614,-239.687C223.792,-282.513,161.803,-311.543,94.682,-322.456C32.903,-332.5,-25.523,-305.436,-87.774,-298.932C-167.287,-290.624,-264.949,-335.034,-321.903,-278.93C-377.811,-223.856,-332.607,-127.07,-341.403,-49.086C-349.847,25.775,-408.012,103.67,-372.556,170.141C-336.858,237.066,-239.752,233.43,-172.252,268.029C-112.974,298.414,-64.819,345.751,0,361.104" fill="#0c233b"></path><path d="M600 1446.599C681.853 1460.1390000000001 770.913 1499.062 843.54 1458.955 916.3299999999999 1418.758 939.884 1325.709 963.36 1245.941 984.432 1174.341 966.96 1101.234 970.7529999999999 1026.694 975.669 930.09 1033.57 828.794 988.957 742.967 943.63 655.767 841.001 604.875 743.8340000000001 590.146 650.984 576.071 567.91 637.433 478.30899999999997 665.558 390.728 693.049 280.82 682.047 223.257 753.55 165.73700000000002 825 199.837 929.943 191.90300000000002 1021.325 184.497 1106.633 135.262 1198.5430000000001 178.19 1272.634 221.18400000000003 1346.839 323.983 1353.4270000000001 403.265 1386.125 468.001 1412.824 530.914 1435.171 600 1446.599" fill="#103153"></path></g><defs><mask id="SvgjsMask1064"><rect width="600" height="1080" fill="#ffffff"></rect></mask></defs></svg>